<svg viewBox="0 0 1920 572" xmlns="http://www.w3.org/2000/svg" xmlns:xlink="http://www.w3.org/1999/xlink"><clipPath id="a"><path d="m1129.31 222.47h394.34v232.48h-394.34z"/></clipPath><clipPath id="b"><path d="m1129.31 222.47h394.34v232.48h-394.34z"/></clipPath><path d="m-166.53 120.25h2253.06v584.42h-2253.06z" fill="#f0e500" transform="matrix(.99254615 -.12186934 .12186934 .99254615 -43.11 120.07)"/><g clip-path="url(#a)"><g clip-path="url(#b)" fill="#231f20"><path d="m1225.63 424.06c2 0 2.5 1.38 2.27 3.32l-3.37 24.6a3.29 3.29 0 0 1 -3.52 2.92h-9.37c-1.77 0-2.36-1.73-2.1-3l2.3-17-24.1 17.43c-2.34 1.65-2.85 2.55-6.3 2.56h-7.58c-2.69 0-3.45-1.44-3.7-2.65l-3.32-17.56-18.14 17.43c-1.4 1.42-2.79 2.67-5.36 2.76l-12.34.13c-1.85 0-2.29-1.4-.92-2.78l27.11-24.68c2.68-2.38 3.75-3.3 7.81-3.3h10.71c3.86.09 4.34 1 4.83 3l3.33 16.95 25.41-17.75a9.6 9.6 0 0 1 6.32-2.33h10"/><path d="m1378.42 425.92c-2-.58-14.5-1.87-21.43-1.87-24.49.1-44.59 6.89-48.88 15.62s9.37 15.36 33.76 15.28c6.59 0 17.46-.61 24.22-2a4.43 4.43 0 0 0 3.42-2.22l1-2.24c.52-1.07.65-2.36-1.63-2.13-5.79.67-16.82 2.57-24.1 2.57-14.78.06-20.48-4.19-18-9.19s12.37-9.54 27.26-9.61a191.68 191.68 0 0 1 20.29 1.35l1.77.2c1.77.27 2.38-.16 2.82-1l1.12-2.22c.63-1.34.38-1.94-1.61-2.51"/><path d="m1512.28 426.94a4.66 4.66 0 0 0 -4.75-3.18h-11.13c-3.17.17-5.79 1.8-7.9 3.28l-34.8 24.48c-1.46 1.11-1.21 3.2.8 3.2h8.57c2.17 0 3.9-1.1 6.72-3.25l29.21-21.36 4.67 12.75h-13.54a2.15 2.15 0 0 0 -1 .32l-3.62 2.84c-.36.32-.24.78.45.78h14.78c2.24 0 4 .1 5.16 2.83l.85 1.87c.65 1.28 1 3.2 3.49 3.19h11.5c2 0 2.23-1.65 1.37-3.27z"/><path d="m1291.75 427.1a4.64 4.64 0 0 0 -4.75-3.18h-11.12c-3.18.17-5.78 1.8-7.91 3.29l-34.78 24.48c-1.47 1.1-1.22 3.2.78 3.2h8.57c2.17 0 3.91-1.05 6.72-3.21l29.24-21.4 4.65 12.76h-13.53a1.88 1.88 0 0 0 -1 .33l-3.62 2.82c-.36.32-.22.78.45.78h14.79c2.25 0 4 .08 5.17 2.82l.85 1.87c.64 1.27 1 3.21 3.48 3.19h11.49c2 0 2.24-1.67 1.37-3.29z"/><path d="m1446.54 423.89a5.76 5.76 0 0 0 -4.87 3.19l-7.87 16.17-26.68-18a8 8 0 0 0 -4.51-1.37h-7.51c-1.79 0-3.48 1.66-4.2 3.35l-11.49 24.29c-.74 1.52-.83 3.21 1.8 3.21h10.06c3 0 4.06-1.73 4.79-3.26l7.77-16 26.2 17.34a11.63 11.63 0 0 0 5.77 1.84h5.72c2.62 0 3.63-1.41 4.4-3.21l11.5-24.52c.83-1.79.53-3.13-1.31-3.13z"/><path d="m1435.22 264.32c-2.94 1.71-34.15 19.56-39.82 23.33-2.77 1.81-5.84 4.8-9.62 10.2-3.34 4.66-29.37 42.06-29.91 42.86a11.46 11.46 0 0 1 -9.87 5.29h-39a11.46 11.46 0 0 1 -9.87-5.27c-.55-.8-26.58-38.2-29.9-42.86-3.79-5.4-6.86-8.39-9.63-10.2-5.67-3.77-36.89-21.62-39.82-23.33s-4.64-3-1.43-5.55 11.17-8.7 14-10.75 5.37-1.89 11.09-1.06 71.26 10.44 75.75 10.9a94.54 94.54 0 0 0 18.63 0c4.49-.46 70-10.07 75.75-10.9s8.38-.88 11.08 1.06c2.86 2 10.83 8.23 14 10.75s1.51 3.83-1.43 5.55m54.89-16c-3.95-2.07-33.92-17.31-43-21.59s-9.85-5.12-18.73-3.49c-8.38 1.53-72.51 13.3-77.67 14.29a185 185 0 0 1 -18.85 2.74c-2.12.17-3.74.26-5.41.26s-3.28-.09-5.41-.26a184.36 184.36 0 0 1 -18.84-2.74c-5.16-1-69.29-12.76-77.67-14.29-8.89-1.63-9.69-.79-18.74 3.49s-39 19.52-43 21.59c-4.28 2.27-4.8 7.49.09 10.11s66.21 35.48 72.23 38.69 8.86 6.36 10.6 9.54c1.51 2.78 27 53.07 31.11 61.22s9.41 9.83 18.92 9.83h61.35c9.52 0 14.76-1.68 18.93-9.83s29.59-58.44 31.11-61.22c1.73-3.18 4.57-6.32 10.59-9.54s67.33-36.06 72.22-38.69 4.39-7.84.11-10.11"/></g></g></svg>